PathFileType	4	(X/Y/Z)	C:/Users/opensim2020/Desktop/walking_exp_matlab/subject03_walking05_straight_02.trc	
DataRate	CameraRate	NumFrames	NumMarkers	Units	OrigDataRate	OrigDataStartFrame	OrigNumFrames	
100.00	100.00	4	45	mm	100.00	1603	252	
Frame#	Time	LFHD			RFHD			LBHD			RBHD			C7			T10			CLAV			STRN			RBAK			LSHO			LUPA			LELB			LFRM			LWRA			LWRB			LFIN			RSHO			RUPA			RELB			RFRM			RWRA			RWRB			RFIN			LASI			RASI			LPSI			RPSI			LTHI			LKNE			LTIB			LANK			LHEE			LTOE			RTHI			RKNE			RTIB			RANK			RHEE			RTOE			*39			*40			*41			*42			*43			*44			
		X1	Y1	Z1	X2	Y2	Z2	X3	Y3	Z3	X4	Y4	Z4	X5	Y5	Z5	X6	Y6	Z6	X7	Y7	Z7	X8	Y8	Z8	X9	Y9	Z9	X10	Y10	Z10	X11	Y11	Z11	X12	Y12	Z12	X13	Y13	Z13	X14	Y14	Z14	X15	Y15	Z15	X16	Y16	Z16	X17	Y17	Z17	X18	Y18	Z18	X19	Y19	Z19	X20	Y20	Z20	X21	Y21	Z21	X22	Y22	Z22	X23	Y23	Z23	X24	Y24	Z24	X25	Y25	Z25	X26	Y26	Z26	X27	Y27	Z27	X28	Y28	Z28	X29	Y29	Z29	X30	Y30	Z30	X31	Y31	Z31	X32	Y32	Z32	X33	Y33	Z33	X34	Y34	Z34	X35	Y35	Z35	X36	Y36	Z36	X37	Y37	Z37	X38	Y38	Z38	X39	Y39	Z39	X40	Y40	Z40	X41	Y41	Z41	X42	Y42	Z42	X43	Y43	Z43	X44	Y44	Z44	X45	Y45	Z45	

127	1.260	1480.99866	44.75028	1618.69092	1348.46094	56.08432	1627.11548	1485.46985	174.56100	1579.86316	1354.66113	181.31815	1588.01038	1417.30969	214.79443	1422.91394	1409.80737	248.78963	1107.75037	1418.48926	94.03195	1344.08020	1423.88452	52.86867	1179.46130	1314.71448	266.57047	1248.37451	1573.20703	144.15631	1379.77246	1638.48364	150.63316	1180.78601	1647.34973	137.33627	1057.87842	1647.95068	107.94045	930.67072	1618.64746	87.24961	812.14038	1668.97156	112.01602	818.11395	1660.26855	99.95681	734.01569	1258.44788	135.05334	1371.50110	1182.72681	114.08247	1151.21167	1170.54065	85.07551	1042.06543	1170.48816	50.26506	909.83630	1210.50574	12.61340	819.17767	1162.27600	36.52836	810.58459	1175.70935	6.32711	743.01947	1533.62659	82.53467	947.58905	1295.75757	74.65682	947.63934	1479.31787	243.51793	960.92206	1329.99841	236.39980	975.33716	1585.86963	60.27021	651.26733	1563.29700	-2.97574	482.91638	1554.44287	108.00384	318.56143	1508.82629	212.74522	140.11761	1466.59753	263.70770	124.49368	1490.64050	95.84746	51.64070	1260.41492	134.52908	651.49573	1299.07495	131.56833	471.94989	1298.00183	186.13907	288.16641	1350.88525	221.81352	75.29068	1401.79651	265.92703	43.93832	1364.02673	80.12943	36.14957																		 
128	1.270	1481.49658	35.44079	1618.09497	1348.91162	46.64543	1626.76880	1485.69446	165.32924	1579.38806	1354.89697	171.89125	1587.81250	1417.22144	205.80942	1422.78040	1409.42004	239.85249	1107.42810	1418.55212	84.93920	1343.65405	1423.68970	43.80106	1179.05212	1313.93738	257.09534	1248.28235	1573.31812	135.28267	1379.19153	1639.16064	144.70514	1180.14050	1648.22119	133.63019	1056.99585	1649.36304	106.29091	929.36517	1620.44324	87.48128	810.38312	1670.42078	112.46834	816.86554	1662.00806	102.11600	732.54303	1258.50134	125.55038	1371.38257	1182.13599	102.89198	1151.53528	1169.75964	72.57134	1042.83252	1169.96423	35.74931	911.14508	1210.13123	-3.21683	821.12366	1162.10779	20.37132	812.11658	1175.54688	-11.11868	745.11743	1532.85803	73.75814	947.53369	1295.39758	65.99905	946.99127	1479.40112	234.48830	960.57001	1329.99792	227.76535	974.93549	1585.83313	48.67978	652.22015	1562.34241	-16.23703	484.57114	1553.97949	87.71674	315.28085	1508.46216	183.38139	131.82358	1466.13635	233.21568	113.01957	1490.89612	61.68409	49.66383	1260.26587	128.53214	651.04608	1298.97607	127.48718	471.47287	1298.10547	183.85091	288.16714	1351.08606	221.53397	75.71925	1401.99512	265.48380	44.29550	1363.83447	80.10942	36.23836																		 
129	1.280	1481.96167	26.19160	1617.41663	1349.41125	37.18236	1626.34021	1485.79785	156.00555	1578.73499	1355.10010	162.49591	1587.41821	1417.13037	196.34146	1422.18469	1409.14563	230.92027	1107.04724	1418.62732	75.80282	1343.10205	1423.50122	34.89296	1178.40796	1313.42383	247.78624	1248.09888	1573.51208	126.49606	1378.50024	1639.61633	138.83153	1179.36145	1649.16064	129.88461	1056.11719	1650.75830	104.80733	928.08508	1622.02991	87.38608	808.77167	1671.97546	112.85728	815.70740	1663.73254	103.90640	731.03278	1258.67053	115.97852	1371.14917	1181.61560	91.69691	1151.77893	1169.02979	60.15921	1043.46375	1169.48181	21.28544	912.35602	1209.76294	-19.02798	823.07886	1161.73254	4.68302	813.45337	1175.23816	-27.89465	747.07098	1532.34351	64.74500	947.35260	1295.02869	57.47635	946.23315	1479.44312	225.54855	960.03052	1330.07166	219.00923	974.29315	1585.88220	37.28767	652.95941	1561.40125	-28.73609	485.89279	1553.31689	67.97369	311.86850	1507.64233	153.23898	123.03693	1465.30127	201.58899	101.30495	1491.62598	27.10762	47.88925	1260.16016	122.66621	650.47571	1298.88428	123.34435	471.01947	1298.30884	181.52583	288.21954	1351.32275	221.41217	76.08952	1402.21301	265.34827	44.82663	1363.80334	80.03784	36.19560																		 
130	1.290	1482.48376	16.92977	1616.69763	1349.92468	27.76937	1625.86682	1486.09302	146.77420	1577.98730	1355.40967	153.15547	1586.93665	1417.28223	186.87733	1421.74011	1409.20850	221.74358	1106.55139	1418.76550	66.59061	1342.44775	1423.37805	25.81436	1177.72412	1313.06555	238.63806	1247.86389	1573.71533	117.48184	1377.65576	1640.11157	132.69768	1178.52161	1650.14148	126.08578	1055.23462	1652.13110	103.14754	926.81580	1623.97876	87.36550	807.30981	1673.45251	113.07773	814.56635	1665.26526	105.16225	729.79706	1258.80518	106.43778	1370.75891	1181.12781	80.52407	1151.85388	1168.37341	47.79591	1043.91101	1169.04028	6.93228	913.44470	1209.23608	-35.38514	825.05573	1161.75623	-11.24576	814.81757	1175.29150	-45.06435	749.07098	1532.33777	54.49186	947.29822	1294.63782	49.07876	945.39105	1479.70862	216.64206	959.47742	1330.27173	210.64284	973.74957	1586.01685	26.22466	653.57733	1560.57104	-40.43007	486.91409	1552.74207	48.45805	308.37222	1507.42773	122.11775	114.62444	1464.54639	169.30388	90.09268	1492.60425	-7.59163	46.57584	1260.14343	116.84362	649.91193	1298.96301	119.22292	470.54440	1298.56165	179.16119	288.23175	1351.59973	221.14441	76.50597	1402.64075	265.76389	45.76460	1363.79236	79.94772	36.17900																		 
